# xmcd CD database file
#
# Track frame offsets:
#	150
#	19842
#	53485
#	70050
#	93817
#	126207
#	147332
#	168917
#
# Disc length: 2402 seconds
#
# Revision: 0
# Processed by: cddbd v1.5.1PL0 Copyright (c) Steve Scherf et al.
# Submitted via: CDex 1.51
#
DISCID=61096008
DTITLE=Mowg - Desire Disk 2
DYEAR=1900
DGENRE=Jazz
TTITLE0=Tango Blue
TTITLE1=I Just Want
TTITLE2=Quiet Rain
TTITLE3=Don't Imagine
TTITLE4=Etude
TTITLE5=He's Gone With Wind
TTITLE6=For What
TTITLE7=Sad But True
EXTD=
EXTT0=
EXTT1=
EXTT2=
EXTT3=
EXTT4=
EXTT5=
EXTT6=
EXTT7=
PLAYORDER=
